<svg version="1.1" id="Layer_1" xmlns="http://www.w3.org/2000/svg" xmlns:xlink="http://www.w3.org/1999/xlink" x="0px" y="0px"
	 width="100%" viewBox="0 0 464 528" enable-background="new 0 0 464 528" xml:space="preserve">
<path fill="#000000" opacity="1.000000" stroke="none" 
	d="
M6.000000,1.000000 
	C158.967117,1.000000 311.934235,1.000000 464.950684,1.000000 
	C464.950684,176.929291 464.950684,352.858582 464.950684,528.893921 
	C310.437317,528.893921 155.874557,528.893921 1.000000,528.893921 
	C1.000000,354.641876 1.000000,180.283585 1.203524,5.663721 
	C5.694705,9.415734 6.190146,3.966110 9.111758,2.850760 
	C7.625641,1.966872 6.812820,1.483436 6.000000,1.000000 
M211.499939,260.257324 
	C204.171463,260.238983 196.833893,260.436584 189.517578,260.128998 
	C184.337631,259.911255 181.779663,261.926666 180.210800,266.937225 
	C172.089554,292.874054 156.346237,312.323792 130.925232,323.136566 
	C127.219948,324.712616 124.955246,327.061371 124.232178,331.071381 
	C120.758362,350.336670 120.954269,369.080383 131.072937,386.717010 
	C142.086212,405.912842 155.110321,423.114960 175.789551,432.858704 
	C183.460175,436.472992 191.228302,439.917236 199.111557,443.035614 
	C214.731705,449.214478 231.146820,451.729462 247.814590,452.608856 
	C264.339966,453.480713 280.704468,451.795105 296.900085,448.543762 
	C318.334991,444.240570 337.314209,434.919006 352.450562,419.042358 
	C372.367889,398.150940 376.742188,371.675262 377.545410,344.234741 
	C377.847961,333.897095 374.574768,326.030334 363.819763,321.433197 
	C355.116974,317.713226 348.750275,310.228638 342.921021,302.540070 
	C334.479034,291.405365 328.736023,278.820648 323.115723,266.251190 
	C320.605835,260.638000 317.513092,258.944885 311.833160,259.101410 
	C290.386688,259.692352 268.931091,258.332367 247.464539,260.031799 
	C235.876328,260.949188 224.159027,260.235809 211.499939,260.257324 
M439.681061,139.276291 
	C449.154114,120.420525 451.868652,100.530045 449.754578,79.615074 
	C447.919830,61.463684 438.723450,49.094971 422.007935,42.770233 
	C404.377747,36.099392 388.693756,41.466557 374.493591,52.580360 
	C366.650543,58.718742 362.250671,67.406975 357.802551,75.973045 
	C343.917694,102.712090 330.225128,129.545151 318.331696,157.256775 
	C314.224243,166.827118 314.066315,166.751541 321.583862,173.690262 
	C322.437378,174.478043 323.206329,175.359634 323.992554,176.217819 
	C335.626038,188.916504 341.125305,204.478455 344.960297,220.857269 
	C346.860687,228.973648 347.811035,229.517044 355.371643,225.848587 
	C375.593414,216.036819 393.927887,203.812286 408.837891,186.509781 
	C421.116760,172.260605 431.716492,157.139297 439.681061,139.276291 
M215.492096,73.147705 
	C211.605316,74.620323 207.688751,76.019371 203.836838,77.578163 
	C186.176056,84.725189 171.825058,95.706612 162.674973,112.848183 
	C152.311722,132.262436 148.350403,151.763611 160.470566,172.065842 
	C166.677963,182.463730 173.756424,191.556320 186.055954,195.197372 
	C201.592484,199.796707 217.350922,198.346878 233.074570,197.142181 
	C248.691544,195.945663 263.285004,190.728119 277.561340,184.666504 
	C298.670532,175.703720 315.052124,162.354889 319.177399,138.168686 
	C320.093689,132.796478 322.178162,127.278183 320.226318,121.915565 
	C315.505280,108.944420 308.889435,97.010048 298.199982,87.921585 
	C273.813629,67.187660 246.132355,63.872307 215.492096,73.147705 
M101.469452,309.062103 
	C98.456924,311.850250 94.884109,313.545929 90.900169,314.386108 
	C84.962372,315.638336 81.611771,319.067719 81.058510,325.285126 
	C80.572556,330.746155 79.528580,336.159180 79.087296,341.622162 
	C76.756866,370.472107 77.744247,398.846161 91.181053,425.455353 
	C99.808281,442.540039 112.191132,455.356598 134.208206,452.713531 
	C140.206161,451.993469 142.743454,449.948090 142.617889,443.971924 
	C142.425797,434.828674 142.003952,425.688873 141.568115,416.552887 
	C141.414291,413.328491 140.108826,410.386810 138.360046,407.725220 
	C135.345810,403.137604 132.150177,398.669617 129.082428,394.116547 
	C121.862381,383.400848 117.396523,371.573517 116.766991,358.708160 
	C114.907288,320.702301 128.768631,288.122040 152.235123,259.076111 
	C154.184982,256.662659 155.754120,254.236725 156.270721,251.218246 
	C159.163818,234.313583 162.926285,217.635559 169.031540,201.557785 
	C169.580078,200.113281 170.129578,198.517487 168.623825,197.457092 
	C167.088287,196.375717 165.877670,197.666870 164.625183,198.501022 
	C148.032532,209.551239 135.331345,224.546646 122.743942,239.671036 
	C120.242760,242.676315 119.919014,245.729813 121.173767,249.412537 
	C124.910904,260.381042 124.366684,271.363007 120.380592,282.151367 
	C116.548721,292.522278 109.804634,300.930054 101.469452,309.062103 
M177.813232,202.565094 
	C182.594238,217.338669 186.278137,232.208252 184.487854,248.021957 
	C183.689255,255.076050 184.680801,255.616959 191.974945,255.618515 
	C229.807144,255.626602 267.639435,255.661682 305.471527,255.593384 
	C320.518372,255.566208 318.611542,257.663055 318.667572,242.287979 
	C318.723236,227.019684 319.303741,211.927780 329.091553,199.022980 
	C330.206055,197.553543 330.308075,195.992859 329.396942,194.352341 
	C325.245697,186.877762 320.506989,179.912094 313.576721,174.629211 
	C311.107422,172.746872 309.163422,172.535812 306.431793,174.272476 
	C298.720337,179.175171 291.000824,184.014114 282.728271,188.057816 
	C251.285400,203.427399 218.621918,208.243683 184.284225,200.794342 
	C182.137344,200.328598 179.675644,199.229446 177.813232,202.565094 
M244.039276,496.610962 
	C248.932037,486.209137 251.549149,475.371063 250.872437,463.771149 
	C250.652771,460.005981 249.243652,458.384430 245.456024,458.319214 
	C241.982941,458.259399 238.511581,457.766235 235.051071,457.364136 
	C216.112503,455.163483 197.739731,450.993286 180.830322,441.732635 
	C179.427582,440.964417 178.129211,439.702026 176.318924,440.208832 
	C176.051208,440.505890 175.719818,440.713013 175.634644,440.994598 
	C175.154388,442.582611 174.754837,444.194855 174.288528,445.787292 
	C171.361572,455.783325 167.638397,465.350006 159.281433,472.242920 
	C156.741776,474.337646 157.724670,476.174194 159.217407,478.238190 
	C164.088120,484.973022 169.213654,491.549652 173.679886,498.545471 
	C183.117188,513.327576 197.267090,520.014526 213.853958,522.434021 
	C226.735550,524.312988 233.121170,520.990540 237.637604,510.970886 
	C239.687332,506.423584 241.708618,501.863464 244.039276,496.610962 
M262.594055,463.327637 
	C262.435486,469.810974 262.209015,476.293732 262.156952,482.777924 
	C262.139801,484.912537 261.963043,487.195251 263.097839,489.133545 
	C267.795746,497.157654 271.779877,505.600464 277.736542,512.879944 
	C283.734314,520.209595 291.326965,521.816528 300.128754,519.984314 
	C325.945038,514.610352 340.413208,497.081787 349.543762,473.846100 
	C350.167847,472.257904 350.458405,470.738007 348.895355,469.305847 
	C342.098877,463.078552 339.492676,454.596100 336.611633,446.255829 
	C335.989471,444.454590 335.994019,442.245605 334.003174,441.181152 
	C333.582916,441.214661 333.196472,441.135132 332.938385,441.281677 
	C312.635651,452.809174 290.297333,456.555450 267.465851,458.322968 
	C264.583923,458.546051 263.271759,459.899841 262.594055,463.327637 
M132.011414,306.404480 
	C131.367691,307.753998 130.732437,309.107605 130.078369,310.452087 
	C128.933929,312.804657 126.834236,315.485474 129.133255,317.725494 
	C131.303986,319.840515 133.712723,317.192108 135.946548,316.433838 
	C137.182510,316.014313 138.309189,315.222015 139.423309,314.502106 
	C156.812225,303.265503 168.505203,287.577637 175.243835,268.149658 
	C177.543518,261.519531 174.717209,258.712219 167.597290,259.556915 
	C159.297577,260.541656 153.317001,264.818787 149.518921,272.008331 
	C143.626862,283.161591 138.031097,294.471344 132.011414,306.404480 
M335.570740,283.948700 
	C343.769592,296.734711 352.658752,308.928375 365.045013,318.095428 
	C367.241730,319.721222 369.320587,321.735931 372.437408,321.310394 
	C373.390533,318.727600 372.017944,316.854828 371.095245,314.998596 
	C363.397522,299.512695 355.079590,284.305237 348.094299,268.507263 
	C344.414185,260.184296 339.096100,257.827545 330.962433,259.086304 
	C330.635956,259.136780 330.297638,259.122040 329.964996,259.118927 
	C326.157257,259.083313 324.932220,260.565491 326.219086,264.423828 
	C328.449432,271.110962 332.073181,277.088501 335.570740,283.948700 
M102.432510,270.895203 
	C101.568253,272.692841 100.796791,274.542450 99.824226,276.279449 
	C94.694237,285.441833 90.637466,295.071075 87.236198,304.987213 
	C86.657387,306.674713 85.556305,308.580688 87.418655,310.033142 
	C89.092300,311.338409 90.912766,310.406281 92.591682,309.646606 
	C95.335152,308.405182 97.874596,306.840424 100.126358,304.825836 
	C111.865219,294.323456 117.640594,280.808655 119.490952,265.508087 
	C120.097794,260.490173 119.360107,255.404770 115.945473,250.329315 
	C110.276405,256.707672 106.690338,263.588959 102.432510,270.895203 
M328.027435,254.619156 
	C330.526337,254.626434 333.025391,254.653168 335.524139,254.637085 
	C341.366272,254.599487 342.282776,253.582001 342.655731,247.667648 
	C342.983276,242.472961 342.267670,237.361450 341.534668,232.283127 
	C340.319733,223.866211 337.849365,215.747787 334.712219,207.842438 
	C334.221375,206.605576 333.707611,205.245148 332.163086,205.046860 
	C330.506775,204.834244 329.941742,206.275208 329.242706,207.367737 
	C328.707092,208.204880 328.316803,209.134766 327.859161,210.021988 
	C321.068390,223.186676 323.345001,237.326355 323.487701,251.224136 
	C323.509827,253.378113 325.093079,254.381775 328.027435,254.619156 
M162.422943,462.883301 
	C165.365707,458.016571 167.708633,452.862030 169.407440,447.448883 
	C172.004593,439.173187 171.601608,438.117157 164.631866,432.862976 
	C163.037445,431.661011 161.527527,430.224548 159.742096,429.423248 
	C155.770767,427.640839 152.833725,423.872284 147.713318,422.715424 
	C147.503464,438.932739 150.258453,453.748413 156.402115,467.982574 
	C159.390167,467.346619 160.582321,465.260864 162.422943,462.883301 
M167.875595,226.167999 
	C165.502991,232.255066 165.045868,238.764755 163.715714,245.081146 
	C161.630219,254.984390 162.506775,255.985504 172.767380,255.675781 
	C173.266129,255.660736 173.765488,255.658890 174.263687,255.633606 
	C177.597656,255.464355 179.136536,253.783417 179.725876,250.397385 
	C181.199127,241.932632 181.086304,233.496689 179.366776,225.170670 
	C178.410370,220.539719 177.931137,215.471466 173.939148,211.197021 
	C170.305969,215.778976 169.507462,220.716965 167.875595,226.167999 
M357.113586,435.864502 
	C357.561523,432.013580 358.009430,428.162659 358.566254,423.375549 
	C353.181610,426.532928 349.075317,429.529358 345.211273,432.847504 
	C338.674591,438.460846 338.722382,438.488800 341.588684,446.758728 
	C342.620575,449.735870 343.387848,452.812500 344.549377,455.735016 
	C346.116302,459.677551 348.196411,463.300232 353.081696,466.100311 
	C354.459656,455.635071 355.704376,446.181549 357.113586,435.864502 
z"/>
<path fill="#000000" opacity="1.000000" stroke="none" 
	d="
M234.379547,129.217361 
	C240.801193,127.243492 246.812241,125.300125 252.894104,123.611877 
	C256.457428,122.622734 258.872650,120.745522 260.855316,117.487793 
	C264.404877,111.655396 271.027313,109.987701 276.442932,112.908394 
	C281.560791,115.668510 283.659210,122.095428 281.407013,128.112274 
	C278.729980,135.264053 268.929932,137.310257 262.649841,131.617462 
	C259.995239,129.211105 257.812195,128.311935 254.325882,129.378738 
	C240.830902,133.508102 227.259247,137.386703 213.720139,141.372208 
	C210.799332,142.232010 208.399689,143.372742 207.062836,146.671478 
	C204.257446,153.593979 197.074356,156.067078 190.639771,152.807892 
	C184.978531,149.940414 182.878174,142.292389 186.121277,136.354568 
	C189.230957,130.661026 197.562042,128.371246 203.006393,132.866684 
	C207.431351,136.520370 211.212723,135.789337 215.764160,134.399246 
	C221.793457,132.557785 227.916138,131.022110 234.379547,129.217361 
z"/>
<path fill="#000000" opacity="1.000000" stroke="none" 
	d="
M311.833618,230.424316 
	C309.378113,237.631149 304.191925,240.849243 297.398132,241.264694 
	C290.357941,241.695206 283.656891,240.287369 279.649292,233.640213 
	C275.657776,227.019669 275.145172,220.226807 279.871460,213.561371 
	C282.354858,210.059052 285.893005,208.341675 289.929688,207.790894 
	C292.356232,207.459808 294.945770,207.573349 297.360107,208.028168 
	C310.282257,210.462555 314.397125,216.756561 311.833618,230.424316 
M285.793610,227.135971 
	C282.075104,229.647888 282.717743,232.099106 285.825073,234.622513 
	C289.577362,237.669662 300.585175,237.902588 304.247650,234.804993 
	C306.023132,233.303345 308.001801,231.378876 306.104248,228.912170 
	C304.203033,226.440674 301.958771,224.136536 299.511932,222.206406 
	C296.635559,219.937439 293.392761,219.687805 290.466278,222.398941 
	C289.008087,223.749802 287.675842,225.236603 285.793610,227.135971 
M281.914948,218.315399 
	C281.387604,219.948456 279.821991,221.425598 281.417847,223.844162 
	C286.402283,222.888428 288.261261,216.944458 293.956696,216.221939 
	C300.206879,215.429031 303.094635,219.803833 307.357300,222.865402 
	C307.850189,217.704269 305.860077,215.281601 300.199371,213.106400 
	C292.330109,210.082535 286.880432,211.486435 281.914948,218.315399 
z"/>
</svg>